<?xml version="1.0" encoding="utf-8"?>
<!-- Generator: Adobe Illustrator 23.0.1, SVG Export Plug-In . SVG Version: 6.00 Build 0)  -->
<svg version="1.1" id="Layer_1" xmlns="http://www.w3.org/2000/svg" xmlns:xlink="http://www.w3.org/1999/xlink" x="0px" y="0px"
	 viewBox="0 0 110 110" style="enable-background:new 0 0 110 110;" xml:space="preserve">
<style type="text/css">
	.st0{fill:#495057;}
</style>
<title>Asset 23</title>
<path class="st0" d="M16.6,96.7h76.1V41.2H16.6V96.7z M37.2,30.9V15.4c0-0.5-0.3-0.7-0.5-1.4c-0.3-0.6-0.7-0.5-1.4-0.5h-3.3
	c-0.5,0-0.7,0.3-1.4,0.5c-0.3,0.3-0.5,0.7-0.5,1.4v15.6c0,0.5,0.3,0.7,0.5,1.4c0.3,0.3,0.7,0.5,1.4,0.5h3.5c0.5,0,0.7-0.3,1.4-0.5
	C37.6,32,37.2,31.2,37.2,30.9z M78.8,30.9V15.4c0-0.5-0.3-0.7-0.5-1.4c-0.3-0.5-0.7-0.5-1.4-0.5h-3.5c-0.5,0-0.7,0.3-1.4,0.5
	c-0.5,0.3-0.5,0.7-0.5,1.4v15.6c0,0.5,0.3,0.7,0.5,1.4c0.3,0.5,0.7,0.5,1.4,0.5h3.5c0.5,0,0.7-0.3,1.4-0.5
	C78.8,31.9,78.8,31.2,78.8,30.9z M99.7,27.4v69.1c0,1.9-0.7,3.5-2.2,4.8c-1.4,1.4-2.9,2.2-4.8,2.2H16.6c-1.9,0-3.5-0.7-4.8-2.2
	c-1.4-1.4-2.2-2.9-2.2-4.8V27.4c0-1.9,0.7-3.5,2.2-4.8c1.4-1.4,2.9-2.2,4.8-2.2h6.9v-5.1c0-2.4,0.7-4.3,2.4-6.2
	c1.6-1.6,3.8-2.4,6.2-2.4h3.5c2.4,0,4.3,0.7,6.2,2.4c1.6,1.6,2.4,3.8,2.4,6.2v5.1h20.9v-5.1c0-2.4,0.7-4.3,2.4-6.2
	c1.6-1.6,3.8-2.4,6.2-2.4H77c2.4,0,4.3,0.7,6.2,2.4c1.6,1.6,2.4,3.8,2.4,6.2v5.1h6.9c1.9,0,3.5,0.7,4.8,2.2
	C98.8,23.9,99.7,25.5,99.7,27.4z"/>
</svg>
