<?xml version="1.0" encoding="utf-8"?>
<!-- Generator: Adobe Illustrator 23.0.1, SVG Export Plug-In . SVG Version: 6.00 Build 0)  -->
<svg version="1.1" id="Layer_1" xmlns="http://www.w3.org/2000/svg" xmlns:xlink="http://www.w3.org/1999/xlink" x="0px" y="0px"
	 viewBox="0 0 110 110" style="enable-background:new 0 0 110 110;" xml:space="preserve">
<style type="text/css">
	.st0{fill:#F88012;}
</style>
<title>Asset 23</title>
<path class="st0" d="M24.2,87.2h60.5V43.1H24.2V87.2z M40.6,35V22.6c0-0.4-0.2-0.6-0.4-1.1s-0.6-0.4-1.1-0.4h-2.6
	c-0.4,0-0.6,0.2-1.1,0.4c-0.2,0.2-0.4,0.6-0.4,1.1V35c0,0.4,0.2,0.6,0.4,1.1c0.2,0.2,0.6,0.4,1.1,0.4h2.8c0.4,0,0.6-0.2,1.1-0.4
	S40.6,35.2,40.6,35z M73.6,35V22.6c0-0.4-0.2-0.6-0.4-1.1c-0.2-0.4-0.6-0.4-1.1-0.4h-2.8c-0.4,0-0.6,0.2-1.1,0.4
	c-0.4,0.2-0.4,0.6-0.4,1.1V35c0,0.4,0.2,0.6,0.4,1.1c0.2,0.4,0.6,0.4,1.1,0.4h2.8c0.4,0,0.6-0.2,1.1-0.4
	C73.6,35.8,73.6,35.2,73.6,35z M90.2,32.2v54.9c0,1.5-0.6,2.8-1.7,3.8c-1.1,1.1-2.3,1.7-3.8,1.7H24.2c-1.5,0-2.8-0.6-3.8-1.7
	c-1.1-1.1-1.7-2.3-1.7-3.8V32.2c0-1.5,0.6-2.8,1.7-3.8c1.1-1.1,2.3-1.7,3.8-1.7h5.5v-4c0-1.9,0.6-3.4,1.9-4.9c1.3-1.3,3-1.9,4.9-1.9
	h2.8c1.9,0,3.4,0.6,4.9,1.9c1.3,1.3,1.9,3,1.9,4.9v4h16.6v-4c0-1.9,0.6-3.4,1.9-4.9c1.3-1.3,3-1.9,4.9-1.9h2.8
	c1.9,0,3.4,0.6,4.9,1.9c1.3,1.3,1.9,3,1.9,4.9v4h5.5c1.5,0,2.8,0.6,3.8,1.7C89.5,29.4,90.2,30.7,90.2,32.2z"/>
</svg>
