<?xml version="1.0" encoding="utf-8"?>
<!-- Generator: Adobe Illustrator 23.0.1, SVG Export Plug-In . SVG Version: 6.00 Build 0)  -->
<svg version="1.1" id="Layer_1" xmlns="http://www.w3.org/2000/svg" xmlns:xlink="http://www.w3.org/1999/xlink" x="0px" y="0px"
	 viewBox="0 0 110 110" style="enable-background:new 0 0 110 110;" xml:space="preserve">
<style type="text/css">
	.st0{fill:#F88012;}
	.st1{fill:#FFFFFF;}
</style>
<title>Asset 23</title>
<rect x="9.2" y="27.2" class="st0" width="93.2" height="56.3"/>
<g>
	<path class="st1" d="M22.7,59l1.9-2.8l-1.9-2.9c-0.4-0.6-0.7-1-1.3-1h-0.1c0,0-0.1,0-0.4,0c-0.7,0-1.2-0.4-1.2-1.2
		c0-0.4,0.1-0.7,0.4-1c0.1-0.1,0.6-0.4,1.2-0.4c0.1,0,0.4,0,0.7,0c0.7,0.1,1.3,0.1,1.6,0.1c0.3,0,0.6,0,1.2-0.1c0.4,0,0.7,0,1.2,0
		s0.6,0.1,1,0.4c0.1,0.1,0.4,0.6,0.4,1s-0.1,0.6-0.4,0.7l-0.4,0.1c-0.3,0.1-0.3,0.3-0.3,0.4s0,0.4,0.1,0.7l1,1.8l1.2-1.8
		c0.1-0.4,0.4-0.6,0.4-0.7s0-0.1-0.1-0.4c-0.4-0.1-0.6-0.6-0.6-1c0-0.4,0.1-0.7,0.4-1c0.1-0.1,0.6-0.4,0.7-0.4s0.6,0,1,0
		c0.4,0,0.7,0.1,1.2,0.1c0.1,0,0.6,0,1-0.1c0.4,0,0.7,0,1,0c0.4,0,0.6,0.1,1,0.4c0.1,0.1,0.4,0.6,0.4,1c0,0.4,0,0.6-0.1,1
		c-0.1,0.1-0.4,0.4-0.7,0.4c0,0,0,0-0.1,0H34c-0.1,0-0.1,0-0.4,0c-0.4,0-0.7,0.4-1.2,1l-1.9,2.8l1.9,3.1l0.4,0.4l0.4,0.4
		c0.1,0.1,0.4,0.1,0.4,0.1c0.1,0,0.1,0,0.4,0h0.1h0.1c0.6,0,1,0.4,1,1.2c0,0.4-0.1,0.7-0.4,1c-0.1,0.1-0.6,0.4-1,0.4
		c-0.1,0-0.4,0-1-0.1c-0.1,0-0.6,0-1.2,0c-0.6,0-1,0-1.2,0c-0.6,0-1,0.1-1,0.1c-0.4,0-0.6-0.1-0.7-0.4c-0.1-0.1-0.4-0.6-0.4-1
		c0-0.4,0-0.6,0.1-0.6c0-0.1,0.1-0.1,0.6-0.4c0.1-0.1,0.1-0.1,0.1-0.4c0,0,0-0.1-0.1-0.6L28,57.5l-1.2,1.8c-0.1,0.4-0.4,0.6-0.4,0.7
		s0,0.1,0.1,0.1l0.4,0.1c0.1,0.1,0.4,0.4,0.4,1c0,0.7-0.4,1.3-1.2,1.3c0,0-0.6,0-1.3-0.1c-0.4,0-0.6,0-1,0c-0.4,0-0.6,0-1,0
		c-0.6,0-0.7,0.1-1,0.1c-0.4,0-0.7-0.1-1-0.4c-0.1-0.1-0.4-0.6-0.4-1c0-0.7,0.4-1.2,1-1.2c0,0,0.1,0,0.4,0c0.1,0,0.1,0,0.4,0
		c0.1,0,0.1,0,0.4,0c0,0,0.1-0.1,0.4-0.6L22.7,59z"/>
	<path class="st1" d="M40.7,59l1.9-2.8l-1.9-2.9c-0.4-0.6-0.7-1-1.3-1h-0.1c0,0-0.1,0-0.4,0c-0.7,0-1.2-0.4-1.2-1.2
		c0-0.4,0.1-0.7,0.4-1c0.1-0.1,0.6-0.4,1.2-0.4c0.1,0,0.4,0,0.7,0c0.7,0.1,1.3,0.1,1.6,0.1c0.3,0,0.6,0,1.2-0.1c0.4,0,0.7,0,1.2,0
		s0.6,0.1,1,0.4c0.1,0.1,0.4,0.6,0.4,1s-0.1,0.6-0.4,0.7l-0.4,0.1c-0.1,0-0.1,0.1-0.1,0.4c0,0.1,0,0.4,0.1,0.7l1,1.8l1.2-1.8
		c0.1-0.4,0.4-0.6,0.4-0.7s0-0.1-0.1-0.4c-0.4-0.1-0.6-0.6-0.6-1s0.1-0.7,0.4-1c0.1-0.1,0.6-0.4,0.7-0.4s0.6,0,1,0s0.7,0.1,1.2,0.1
		c0.1,0,0.6,0,1-0.1c0.4,0,0.7,0,1,0c0.4,0,0.6,0.1,1,0.4c0.1,0.1,0.4,0.6,0.4,1s0,0.6-0.1,1c-0.1,0.1-0.4,0.4-0.7,0.4
		c0,0,0,0-0.1,0h-0.1c-0.1,0-0.1,0-0.4,0c-0.4,0-0.7,0.4-1.2,1l-1.9,2.8l1.9,3.1l0.4,0.4l0.4,0.4c0.1,0.1,0.4,0.1,0.4,0.1
		c0.1,0,0.1,0,0.4,0h0.1h0.1c0.6,0,1,0.4,1,1.2c0,0.4-0.1,0.7-0.4,1c-0.1,0.1-0.6,0.4-1,0.4c-0.1,0-0.4,0-1-0.1c-0.1,0-0.6,0-1.2,0
		c-0.6,0-1,0-1.2,0c-0.6,0-1,0.1-1,0.1c-0.4,0-0.6-0.1-0.7-0.4c-0.1-0.1-0.4-0.6-0.4-1s0-0.6,0.1-0.6c0-0.1,0.1-0.1,0.6-0.4
		c0.1-0.1,0.1-0.1,0.1-0.4c0,0,0-0.1-0.1-0.6l-1.2-1.9l-1.2,1.8c-0.1,0.4-0.4,0.6-0.4,0.7s0,0.1,0.1,0.1l0.4,0.1
		c0.1,0.1,0.4,0.4,0.4,1c0,0.7-0.4,1.3-1.2,1.3c0,0-0.6,0-1.3-0.1c-0.4,0-0.6,0-1,0c-0.4,0-0.6,0-1,0c-0.6,0-0.7,0.1-1,0.1
		c-0.4,0-0.7-0.1-1-0.4c-0.1-0.1-0.4-0.6-0.4-1c0-0.7,0.4-1.2,1-1.2c0,0,0.1,0,0.4,0c0.1,0,0.1,0,0.4,0c0.1,0,0.1,0,0.4,0
		c0,0,0.1-0.1,0.4-0.6L40.7,59z"/>
	<path class="st1" d="M58.5,59l1.9-2.8l-1.9-2.9c-0.4-0.6-0.7-1-1.3-1H57c0,0-0.1,0-0.4,0c-0.7,0-1.2-0.4-1.2-1.2
		c0-0.4,0.1-0.7,0.4-1c0.1-0.1,0.6-0.4,1.2-0.4c0.1,0,0.4,0,0.7,0c0.7,0.1,1.3,0.1,1.6,0.1c0.3,0,0.6,0,1.2-0.1c0.4,0,0.7,0,1.2,0
		s0.6,0.1,1,0.4c0.1,0.1,0.4,0.6,0.4,1s-0.1,0.6-0.4,0.7l-0.4,0.1c-0.1,0-0.1,0.1-0.1,0.4c0,0.1,0,0.4,0.1,0.7l1,1.8l1.2-1.8
		c0.1-0.4,0.4-0.6,0.4-0.7s0-0.1-0.1-0.4c-0.4-0.1-0.6-0.6-0.6-1c0-0.4,0.1-0.7,0.4-1c0.1-0.1,0.6-0.4,0.7-0.4c0.1,0,0.6,0,1,0
		s0.7,0.1,1.2,0.1c0.1,0,0.6,0,1-0.1c0.4,0,0.7,0,1,0c0.4,0,0.6,0.1,1,0.4c0.1,0.1,0.4,0.6,0.4,1c0,0.4,0,0.6-0.1,1
		c-0.1,0.1-0.4,0.4-0.7,0.4c0,0,0,0-0.1,0c0,0,0,0-0.1,0c-0.1,0-0.1,0-0.4,0c-0.4,0-0.7,0.4-1.2,1l-1.9,2.8l1.9,3.1l0.4,0.4l0.4,0.4
		c0.1,0.1,0.4,0.1,0.4,0.1c0.1,0,0.1,0,0.4,0h0.1h0.1c0.6,0,1,0.4,1,1.2c0,0.4-0.1,0.7-0.4,1c-0.1,0.1-0.6,0.4-1,0.4
		c-0.1,0-0.4,0-1-0.1c-0.1,0-0.6,0-1.2,0s-1,0-1.2,0c-0.6,0-1,0.1-1,0.1c-0.4,0-0.6-0.1-0.7-0.4c-0.1-0.1-0.4-0.6-0.4-1
		c0-0.4,0-0.6,0.1-0.6c0-0.1,0.1-0.1,0.6-0.4c0.1-0.1,0.1-0.1,0.1-0.4c0,0,0-0.1-0.1-0.6l-1.2-1.9l-1.2,1.8
		c-0.1,0.4-0.4,0.6-0.4,0.7s0,0.1,0.1,0.1l0.4,0.1c0.1,0.1,0.4,0.4,0.4,1c0,0.7-0.4,1.3-1.2,1.3c0,0-0.6,0-1.3-0.1c-0.4,0-0.6,0-1,0
		s-0.6,0-1,0c-0.6,0-0.7,0.1-1,0.1c-0.4,0-0.7-0.1-1-0.4c-0.1-0.1-0.4-0.6-0.4-1c0-0.7,0.4-1.2,1-1.2c0,0,0.1,0,0.4,0
		c0.1,0,0.1,0,0.4,0c0.1,0,0.1,0,0.4,0c0,0,0.1-0.1,0.4-0.6L58.5,59z"/>
	<path class="st1" d="M76.6,59l1.9-2.8l-1.9-3.1c-0.4-0.6-0.7-1-1.3-1h-0.1c0,0-0.1,0-0.4,0c-0.7,0-1-0.4-1-1.2c0-0.4,0.1-0.7,0.4-1
		c0.1-0.1,0.6-0.4,1.2-0.4c0.1,0,0.4,0,0.6,0c0.7,0.1,1.3,0.1,1.6,0.1c0.1,0,0.6,0,1.2-0.1c0.4,0,0.7,0,1.2,0c0.4,0,0.6,0.1,1,0.4
		c0.1,0.1,0.4,0.6,0.4,1c0,0.4-0.1,0.6-0.4,0.7l-0.4,0.1c-0.1,0-0.1,0.1-0.1,0.4c0,0.1,0,0.4,0.1,0.7l1,1.8l1.2-1.8
		c0.1-0.4,0.4-0.6,0.4-0.7s0-0.1-0.1-0.4c-0.4-0.1-0.6-0.6-0.6-1s0.1-0.7,0.4-1c0.1-0.1,0.6-0.4,1-0.4c0.1,0,0.6,0,1,0
		s0.7,0.1,1,0.1c0.1,0,0.6,0,1-0.1c0.4,0,0.7,0,1,0c0.4,0,0.6,0.1,1,0.4c0.1,0.1,0.4,0.6,0.4,1s0,0.6-0.1,1
		c-0.1,0.1-0.4,0.4-0.7,0.4c0,0,0,0-0.1,0c0,0,0,0-0.1,0c-0.1,0-0.4,0-0.4,0c-0.4,0-0.7,0.4-1.2,1l-1.9,2.8l1.9,3.1l0.4,0.4l0.1,0.4
		c0.1,0.1,0.4,0.1,0.4,0.1c0.1,0,0.1,0,0.4,0h0.1h0.1c0.6,0,1,0.4,1,1.2c0,0.4-0.1,0.7-0.4,1c-0.1,0.1-0.6,0.4-1,0.4
		c-0.1,0-0.4,0-1-0.1c-0.1,0-0.6,0-1.2,0s-1,0-1.2,0c-0.6,0-1,0.1-1,0.1c-0.4,0-0.6-0.1-0.7-0.4c-0.1-0.1-0.4-0.6-0.4-1
		s0-0.6,0.1-0.6c0.1,0,0.1-0.1,0.6-0.4c0.1-0.1,0.1-0.1,0.1-0.4c0,0,0-0.1-0.1-0.6l-1.2-1.9l-1.2,1.8c-0.1,0.4-0.4,0.6-0.4,0.7
		s0,0.1,0.1,0.1l0.4,0.1c0.1,0.1,0.4,0.4,0.4,1c0,0.7-0.4,1.3-1.2,1.3c0,0-0.6,0-1.3-0.1c-0.4,0-0.6,0-1,0c-0.4,0-0.6,0-1,0
		c-0.6,0-0.7,0.1-1,0.1c-0.4,0-0.7-0.1-1-0.4c-0.1-0.1-0.4-0.6-0.4-1c0-0.7,0.4-1.2,1-1.2c0,0,0.1,0,0.4,0c0.1,0,0.4,0,0.4,0
		c0.1,0,0.1,0,0.4,0c0,0,0.1-0.1,0.4-0.6L76.6,59z"/>
</g>
</svg>
