<?xml version="1.0" encoding="utf-8"?>
<!-- Generator: Adobe Illustrator 23.0.1, SVG Export Plug-In . SVG Version: 6.00 Build 0)  -->
<svg version="1.1" id="Layer_1" xmlns="http://www.w3.org/2000/svg" xmlns:xlink="http://www.w3.org/1999/xlink" x="0px" y="0px"
	 viewBox="0 0 110 110" style="enable-background:new 0 0 110 110;" xml:space="preserve">
<style type="text/css">
	.st0{fill:#F88012;}
</style>
<title>Asset 23</title>
<g>
	<path class="st0" d="M41.8,88.4c-0.9,0-1.7-0.2-2.2-0.7c-3.2-2.4-1.7-7.5,1.5-17.9c1.3-4.5,3.5-11.6,3.4-14.2
		c-3,1.1-9.9,10.8-12.3,14.2c-2.2,3.2-3.5,4.8-4.5,5.8c-2.2,2.2-4.7,1.9-6.2,0.9c-2.6-1.9-3.5-6.2-2.2-11.9c-2.6,2.8-6,6.5-8.8,9.9
		c-0.9,1.1-2.8,1.3-3.9,0.4c-1.1-0.9-1.3-2.8-0.4-3.9c14.9-18.3,17.2-17,19-15.9c2.6,1.5,1.3,5,0.9,6.3c-1.9,4.8-1.9,8-1.7,9.5
		c0.7-0.9,2.1-2.8,3.2-4.5c6.3-9,11.6-15.9,16.4-16.6c1.5-0.2,2.8,0,3.9,0.9c3.7,2.6,2.1,9.1-1.5,20.5c-0.9,3.4-2.4,7.8-2.8,10.6
		c10.6-7.1,15.7-13.4,15.9-13.4c0.9-1.1,2.8-1.3,3.9-0.4c1.1,0.9,1.3,2.8,0.4,3.9c-0.2,0.4-5.8,7.3-17.7,14.9
		C44.4,87.9,43.1,88.4,41.8,88.4z"/>
</g>
<g>
	<g>
		<path class="st0" d="M72.7,64.2c-1.1-1.5-2.6-3-4.1-4.1c-0.7-0.6-2.1-0.4-2.6,0.4c-0.6,0.7-0.4,2.1,0.4,2.6
			c1.3,0.9,2.4,2.1,3.4,3.4c0.4,0.6,0.9,0.7,1.5,0.7c0.4,0,0.7-0.2,1.1-0.4C73.1,66.2,73.3,64.9,72.7,64.2z"/>
		<path class="st0" d="M103.7,35.8L97,29.1c-1.5-1.5-3.9-1.5-5.2,0L61.2,59.7c-0.7,0.7-1.1,1.7-1.1,2.6v8.6c0,1.1,0.7,1.9,1.9,1.9
			h8.6c0.9,0,1.9-0.4,2.6-1.1L103.7,41C105.2,39.6,105.2,37.1,103.7,35.8z M70.5,69h-6.7v-6.7L89,37.1l6.7,6.7L70.5,69z M98.3,41.2
			l-6.7-6.7l2.8-2.8l6.7,6.7L98.3,41.2z"/>
	</g>
</g>
</svg>
