<?xml version="1.0" encoding="utf-8"?>
<!-- Generator: Adobe Illustrator 23.0.1, SVG Export Plug-In . SVG Version: 6.00 Build 0)  -->
<svg version="1.1" id="Layer_1" xmlns="http://www.w3.org/2000/svg" xmlns:xlink="http://www.w3.org/1999/xlink" x="0px" y="0px"
	 viewBox="0 0 110 110" style="enable-background:new 0 0 110 110;" xml:space="preserve">
<style type="text/css">
	.st0{fill:#495057;}
</style>
<title>Asset 23</title>
<g>
	<path class="st0" d="M25.1,59.4h-6.5c-2,0-2.6,1.3-2.6,3.4c0,0.5,0.3,0.8,0.8,0.8c0.3,0,0.5,0,0.8,0s0.5,0,0.8,0
		c1.3,0,1.8,1,1.8,2.9c0,1-0.3,2-0.8,2.4c-0.5,0.8-1.3,1-2.1,1c-0.5,0-1.5,0-2.9-0.3c-0.8,0-1.8-0.3-2.9-0.3c-1.3,0-2.4,0-3.1,0.3
		c-1.8,0.3-2.6,0.3-3.1,0.3c-1,0-2-0.3-2.4-1c-0.8-0.8-1-1.5-1-2.4c0-2.1,1-3.4,2.6-3.4c0.3,0,0.5,0,1,0c0.5,0,0.8,0,1,0
		c0.8,0,1.3-0.3,1.5-1c0-0.3,0.3-0.8,0.8-1.8L15.3,41c0.8-2.1,1.8-3.6,2.6-4.2c0.8-0.3,2.1-0.5,4.7-0.5c2.6,0,4.4,0.3,5.2,0.5
		c0.8,0.3,1.3,1.3,1.8,2.9l6.3,20.8c0.5,1.8,1,2.4,1.8,2.4c0.3,0,0.5,0,1-0.3h0.5c1.8,0,2.6,1,2.6,3.1c0,1-0.3,2-1,2.6
		c-0.8,0.8-1.5,1-2.4,1c-0.5,0-1,0-1.8-0.3c-1-0.3-1.5-0.3-1.8-0.3c-0.8,0-1.8,0-2.6,0c-1.3,0-2,0-2.4,0c-1.8,0.3-2.6,0.5-3.1,0.5
		c-1,0-1.8-0.3-2.1-1c-0.5-0.8-1-1.5-1-2.4c0-2,0.8-2.9,2-2.9c0.3,0,0.5,0,0.8,0s0.5,0,0.8,0c0.8,0,1-0.3,1-1c0-1-0.3-1.8-0.5-2.1
		C26.2,59.5,25.6,59.4,25.1,59.4z M24.4,51.9L22,42l-3,10.4v0.3c0,0.5,0.5,0.5,1.3,0.5h2.9c0.8,0,1.3-0.3,1.3-0.8
		C24.4,52.4,24.4,52.4,24.4,51.9z"/>
	<path class="st0" d="M74.1,44.6c0,3.6-2,5.9-6,6.8l1.3,0.5c2.4,1,4.2,2.4,5.2,3.9c0.8,1.3,1,2.6,1,3.9c0,3.1-1.3,5.4-3.4,7
		c-2.1,1.8-5.4,2.6-9.3,2.6c-1.3,0-2.6,0-3.9-0.3L55.3,69c-1,0-2,0-2.9,0c-0.8,0-2,0-3.4,0.3c-1.5,0.3-2.6,0.3-3.1,0.3h-0.5
		c-1,0-2-0.3-2.4-1c-0.8-0.8-1-1.5-1-2.6c0-1,0.3-1.8,0.8-2.1c0.5-0.8,1.3-1,2-1c0.3,0,0.8,0,1.3,0.3c0.5,0,1,0.3,1.3,0.3
		c1,0,1.3-1.3,1.3-3.4V46.4c0-2.1-0.5-3.1-1.3-3.1c-0.3,0-0.8,0-1.3,0.3c-0.5,0-1,0.3-1.3,0.3c-0.8,0-1.5-0.3-2-1
		C42.3,42,42,41.2,42,40.6c0-1,0.3-2,1-2.6c0.8-0.8,1.5-1,2.4-1h0.3h0.3l3.4,0.3c1,0,2.1,0.3,3.9,0.3c1.3,0,2.1,0,2.9,0l3.4-0.3
		c0.8,0,2,0,3.1,0c2.1,0,4.2,0.3,5.9,0.8c1.8,0.5,3.1,1.5,4.2,2.6C73.6,41.7,74.1,43,74.1,44.6z M56.4,48c0,0.8,0.3,1,0.5,1.3
		s0.5,0.3,1.3,0.3h1.5c1.8,0,2.9-0.3,3.9-1c1-0.8,1.5-1.5,1.5-2.4c0-2.1-1.8-3.1-5.2-3.1c-1.3,0-2.1,0-2.4,0.3c-0.8,0.3-1,1-1,2.1
		C56.4,45.4,56.4,48,56.4,48z M66.3,59.5c0-1.3-0.5-2.4-1.8-3.1c-1.3-0.8-2.6-1.3-4.9-1.3h-1.5c-0.8,0-1.3,0-1.5,0.3
		c-0.3,0.3-0.3,0.5-0.3,1.3v3.6c0,1.3,0.3,2.1,1,2.4c0.8,0.3,2,0.8,3.9,0.8c1.5,0,2.6-0.3,3.4-1C65.8,61.7,66.3,60.7,66.3,59.5z"/>
	<path class="st0" d="M92.7,36.1c3.1,0,5.9,1.3,8.1,3.4c0,0,0-0.3,0-0.5c0-1.8,1-2.6,2.9-2.6c1,0,1.8,0.3,2.1,1
		c0.5,0.5,0.8,1.3,0.8,2.1c0,0.5,0,1-0.3,2c-0.3,1.3-0.3,2.1-0.3,2.9c0,0.5,0,1,0.3,2c0,0.8,0.3,1.5,0.3,2c0,1-0.5,1.8-1.3,2.4
		c-0.8,0.6-1.8,1-2.9,1c-2.4,0-3.6-1-3.6-3.1v-1.5c0-1-0.5-2-1.3-2.6c-1-0.8-2-1-3.4-1c-4.4,0-6.5,3.4-6.5,10.2c0,3.6,0.5,6,1.5,7.8
		c1,1.8,2.6,2.4,5.2,2.4c1.5,0,2.6-0.3,3.4-1c1-0.8,1.5-1.5,1.3-2.6v-1.8c0-1,0.3-1.8,1-2.4c0.8-0.6,1.5-1,2.6-1
		c1.5,0,2.4,0.5,3.1,1.5c0.8,1,1.3,2.1,1.3,3.6c0,3.1-1.3,5.7-3.6,7.6c-2.4,2-5.7,2.9-9.6,2.9c-4.7,0-8.6-1.5-11.2-4.7
		c-2.6-3.1-4.2-7-4.2-12.5s1.3-9.8,3.6-12.7C84.9,37.6,88.3,36.1,92.7,36.1z"/>
</g>
</svg>
