<?xml version="1.0" encoding="utf-8"?>
<!-- Generator: Adobe Illustrator 23.0.1, SVG Export Plug-In . SVG Version: 6.00 Build 0)  -->
<svg version="1.1" id="Layer_1" xmlns="http://www.w3.org/2000/svg" xmlns:xlink="http://www.w3.org/1999/xlink" x="0px" y="0px"
	 viewBox="0 0 110 110" style="enable-background:new 0 0 110 110;" xml:space="preserve">
<style type="text/css">
	.st0{fill:#F88012;}
</style>
<title>Asset 23</title>
<g>
	<path class="st0" d="M30,58.5h-5.2c-1.6,0-2.1,1-2.1,2.7c0,0.4,0.2,0.6,0.6,0.6c0.2,0,0.4,0,0.6,0c0.2,0,0.4,0,0.6,0
		c1,0,1.4,0.8,1.4,2.3c0,0.8-0.2,1.6-0.6,1.9c-0.4,0.6-1,0.8-1.7,0.8c-0.4,0-1.2,0-2.3-0.2c-0.6,0-1.4-0.2-2.3-0.2
		c-1,0-1.9,0-2.5,0.2c-1.4,0.2-2.1,0.2-2.5,0.2c-0.8,0-1.6-0.2-1.9-0.8c-0.6-0.6-0.8-1.2-0.8-1.9c0-1.7,0.8-2.7,2.1-2.7
		c0.2,0,0.4,0,0.8,0c0.4,0,0.6,0,0.8,0c0.6,0,1-0.2,1.2-0.8c0-0.2,0.2-0.6,0.6-1.4l5.4-15.3c0.6-1.7,1.4-2.9,2.1-3.3
		c0.6-0.2,1.7-0.4,3.7-0.4c2.1,0,3.5,0.2,4.1,0.4c0.6,0.2,1,1,1.4,2.3l5,16.5c0.4,1.4,0.8,1.9,1.4,1.9c0.2,0,0.4,0,0.8-0.2h0.4
		c1.4,0,2.1,0.8,2.1,2.5c0,0.8-0.2,1.6-0.8,2.1c-0.6,0.6-1.2,0.8-1.9,0.8c-0.4,0-0.8,0-1.4-0.2c-0.8-0.2-1.2-0.2-1.4-0.2
		c-0.6,0-1.4,0-2.1,0c-1,0-1.6,0-1.9,0c-1.4,0.2-2.1,0.4-2.5,0.4c-0.8,0-1.4-0.2-1.7-0.8c-0.4-0.6-0.8-1.2-0.8-1.9
		c0-1.6,0.6-2.3,1.6-2.3c0.2,0,0.4,0,0.6,0s0.4,0,0.6,0c0.6,0,0.8-0.2,0.8-0.8c0-0.8-0.2-1.4-0.4-1.7C30.8,58.6,30.4,58.5,30,58.5z
		 M29.4,52.6l-1.9-7.9L25.1,53v0.2c0,0.4,0.4,0.4,1,0.4h2.3c0.6,0,1-0.2,1-0.6C29.4,53,29.4,53,29.4,52.6z"/>
	<path class="st0" d="M68.9,46.8c0,2.9-1.6,4.7-4.8,5.4l1,0.4c1.9,0.8,3.3,1.9,4.1,3.1c0.6,1,0.8,2.1,0.8,3.1c0,2.5-1,4.3-2.7,5.6
		c-1.7,1.4-4.3,2.1-7.4,2.1c-1,0-2.1,0-3.1-0.2L54,66.2c-0.8,0-1.6,0-2.3,0c-0.6,0-1.6,0-2.7,0.2c-1.2,0.2-2.1,0.2-2.5,0.2h-0.4
		c-0.8,0-1.6-0.2-1.9-0.8c-0.6-0.6-0.8-1.2-0.8-2.1c0-0.8,0.2-1.4,0.6-1.7c0.4-0.6,1-0.8,1.6-0.8c0.2,0,0.6,0,1,0.2
		c0.4,0,0.8,0.2,1,0.2c0.8,0,1-1,1-2.7V48.2c0-1.7-0.4-2.5-1-2.5c-0.2,0-0.6,0-1,0.2c-0.4,0-0.8,0.2-1,0.2c-0.6,0-1.2-0.2-1.6-0.8
		c-0.4-0.6-0.6-1.2-0.6-1.7c0-0.8,0.2-1.6,0.8-2.1c0.6-0.6,1.2-0.8,1.9-0.8h0.2h0.2l2.7,0.2c0.8,0,1.7,0.2,3.1,0.2c1,0,1.7,0,2.3,0
		l2.7-0.2c0.6,0,1.6,0,2.5,0c1.7,0,3.3,0.2,4.7,0.6c1.4,0.4,2.5,1.2,3.3,2.1C68.5,44.5,68.9,45.5,68.9,46.8z M54.8,49.5
		c0,0.6,0.2,0.8,0.4,1c0.2,0.2,0.4,0.2,1,0.2h1.2c1.4,0,2.3-0.2,3.1-0.8c0.8-0.6,1.2-1.2,1.2-1.9c0-1.7-1.4-2.5-4.1-2.5
		c-1,0-1.7,0-1.9,0.2c-0.6,0.2-0.8,0.8-0.8,1.7C54.8,47.4,54.8,49.5,54.8,49.5z M62.7,58.6c0-1-0.4-1.9-1.4-2.5c-1-0.6-2.1-1-3.9-1
		h-1.2c-0.6,0-1,0-1.2,0.2c-0.2,0.2-0.2,0.4-0.2,1v2.9c0,1,0.2,1.7,0.8,1.9s1.6,0.6,3.1,0.6c1.2,0,2.1-0.2,2.7-0.8
		C62.3,60.4,62.7,59.6,62.7,58.6z"/>
	<path class="st0" d="M83.7,40c2.5,0,4.7,1,6.4,2.7c0,0,0-0.2,0-0.4c0-1.4,0.8-2.1,2.3-2.1c0.8,0,1.4,0.2,1.7,0.8
		c0.4,0.4,0.6,1,0.6,1.7c0,0.4,0,0.8-0.2,1.6c-0.2,1-0.2,1.7-0.2,2.3c0,0.4,0,0.8,0.2,1.6c0,0.6,0.2,1.2,0.2,1.6
		c0,0.8-0.4,1.4-1,1.9s-1.4,0.8-2.3,0.8c-1.9,0-2.9-0.8-2.9-2.5v-1.2c0-0.8-0.4-1.6-1-2.1c-0.8-0.6-1.6-0.8-2.7-0.8
		c-3.5,0-5.2,2.7-5.2,8.1c0,2.9,0.4,4.8,1.2,6.2c0.8,1.4,2.1,1.9,4.1,1.9c1.2,0,2.1-0.2,2.7-0.8c0.8-0.6,1.2-1.2,1-2.1v-1.4
		c0-0.8,0.2-1.4,0.8-1.9s1.2-0.8,2.1-0.8c1.2,0,1.9,0.4,2.5,1.2c0.6,0.8,1,1.7,1,2.9c0,2.5-1,4.5-2.9,6c-1.9,1.6-4.5,2.3-7.6,2.3
		c-3.7,0-6.8-1.2-8.9-3.7c-2.1-2.5-3.3-5.6-3.3-9.9s1-7.8,2.9-10.1C77.5,41.2,80.2,40,83.7,40z"/>
</g>
</svg>
