<?xml version="1.0" encoding="utf-8"?>
<!-- Generator: Adobe Illustrator 23.0.1, SVG Export Plug-In . SVG Version: 6.00 Build 0)  -->
<svg version="1.1" id="Layer_1" xmlns="http://www.w3.org/2000/svg" xmlns:xlink="http://www.w3.org/1999/xlink" x="0px" y="0px"
	 viewBox="0 0 110 110" style="enable-background:new 0 0 110 110;" xml:space="preserve">
<style type="text/css">
	.st0{fill:#F88012;}
</style>
<title>Asset 23</title>
<path class="st0" d="M86.5,34.8c1.1,0,2.1,0.4,2.8,1.1c0.7,0.7,1.1,1.7,1.1,2.8v49c0,1.1-0.4,2.1-1.1,2.8c-0.7,0.7-1.7,1.1-2.8,1.1
	H47.9c-1.1,0-2.1-0.4-2.8-1.1c-0.7-0.7-1.1-1.7-1.1-2.8V76.1H22.3c-1.1,0-2.1-0.4-2.8-1.1c-0.7-0.7-1.1-1.7-1.1-2.8V45
	c0-1.1,0.2-2.2,0.7-3.5s1.1-2.2,1.9-3l16.4-16.4c0.7-0.7,1.7-1.3,3-1.9c1.3-0.6,2.4-0.7,3.5-0.7h16.8c1.1,0,2.1,0.4,2.8,1.1
	c0.7,0.7,1.1,1.7,1.1,2.8v13.3c1.9-1.1,3.5-1.7,5.2-1.7h16.6V34.8z M64.7,43.2l-12,12h12V43.2z M38.9,27.8l-12,12h12V27.8z
	 M46.7,53.8l12.7-12.7V24.3H43.9v16.8c0,1.1-0.4,2.1-1.1,2.8C42.1,44.7,41.1,45,40,45H23.2v25.8h20.6V60.5c0-1.1,0.2-2.2,0.7-3.5
	C45.4,55.7,46,54.6,46.7,53.8z M85.2,86.1V39.8H69.7v16.8c0,1.1-0.4,2.1-1.1,2.8c-0.7,0.7-1.7,1.1-2.8,1.1H49v25.8h36.2V86.1z"/>
</svg>
