<?xml version="1.0" encoding="utf-8"?>
<!-- Generator: Adobe Illustrator 23.0.1, SVG Export Plug-In . SVG Version: 6.00 Build 0)  -->
<svg version="1.1" id="Layer_1" xmlns="http://www.w3.org/2000/svg" xmlns:xlink="http://www.w3.org/1999/xlink" x="0px" y="0px"
	 viewBox="0 0 110 110" style="enable-background:new 0 0 110 110;" xml:space="preserve">
<style type="text/css">
	.st0{fill:#495057;}
</style>
<title>Asset 23</title>
<path class="st0" d="M100.4,25.8c1.6,0,3,0.6,4,1.6c1,1,1.6,2.4,1.6,4v70.2c0,1.6-0.6,3-1.6,4c-1,1-2.4,1.6-4,1.6H45.1
	c-1.6,0-3-0.6-4-1.6c-1-1-1.6-2.4-1.6-4V85H8.4c-1.6,0-3-0.6-4-1.6c-1-1-1.6-2.4-1.6-4v-39c0-1.6,0.3-3.2,1-5
	c0.7-1.9,1.6-3.2,2.7-4.3L30,7.6c1-1,2.4-1.9,4.3-2.7s3.4-1,5-1h24.1c1.6,0,3,0.6,4,1.6c1,1,1.6,2.4,1.6,4v19.1
	c2.7-1.6,5-2.4,7.5-2.4h23.8v-0.3H100.4z M69.2,37.9L52,55h17.2V37.9z M32.2,15.8L15,33h17.2V15.8z M43.4,53l18.2-18.2V10.8H39.4
	v24.1c0,1.6-0.6,3-1.6,4c-1,1.1-2.4,1.6-4,1.6H9.7v37h29.5V62.6c0-1.6,0.3-3.2,1-5C41.5,55.8,42.4,54.2,43.4,53z M98.5,99.3V33H76.3
	v24.1c0,1.6-0.6,3-1.6,4c-1,1-2.4,1.6-4,1.6H46.7v37h51.9V99.3z"/>
</svg>
