<?xml version="1.0" encoding="utf-8"?>
<!-- Generator: Adobe Illustrator 23.0.1, SVG Export Plug-In . SVG Version: 6.00 Build 0)  -->
<svg version="1.1" id="Layer_1" xmlns="http://www.w3.org/2000/svg" xmlns:xlink="http://www.w3.org/1999/xlink" x="0px" y="0px"
	 viewBox="0 0 110 110" style="enable-background:new 0 0 110 110;" xml:space="preserve">
<style type="text/css">
	.st0{fill:#F88012;}
	.st1{fill:none;}
</style>
<title>Asset 23</title>
<g>
	<g id="Layer_1-2">
		<g>
			<path class="st0" d="M96,88.8H13.9c-3.2,0-5.8-2.5-5.8-5.7V27.3c0-3.2,2.5-5.7,5.8-5.7H96c3.2,0,5.7,2.5,5.7,5.7v55.8
				C101.6,86.3,99.1,88.8,96,88.8z M13.9,25.7c-1,0-1.8,0.7-1.8,1.7v55.8c0,0.9,0.8,1.7,1.8,1.7H96c0.9,0,1.7-0.7,1.7-1.7V27.3
				c0-0.9-0.7-1.7-1.7-1.7H13.9z"/>
		</g>
		<rect y="0" class="st1" width="110" height="110"/>
	</g>
</g>
</svg>
