<?xml version="1.0" encoding="utf-8"?>
<!-- Generator: Adobe Illustrator 23.0.1, SVG Export Plug-In . SVG Version: 6.00 Build 0)  -->
<svg version="1.1" id="Layer_1" xmlns="http://www.w3.org/2000/svg" xmlns:xlink="http://www.w3.org/1999/xlink" x="0px" y="0px"
	 viewBox="0 0 110 110" style="enable-background:new 0 0 110 110;" xml:space="preserve">
<style type="text/css">
	.st0{fill:#495057;}
</style>
<title>Asset 23</title>
<g>
	<g>
		<path class="st0" d="M99.1,102.2h-6c-1.9,0-3.5-1.6-3.5-3.5s1.6-3.5,3.5-3.5h2.5v-2.5c0-1.9,1.6-3.5,3.5-3.5s3.5,1.6,3.5,3.5v6
			C102.6,100.6,101,102.2,99.1,102.2z"/>
	</g>
	<g>
		<path class="st0" d="M82.3,102.2H71.6c-1.9,0-3.5-1.6-3.5-3.5s1.6-3.5,3.5-3.5h10.7c1.9,0,3.5,1.6,3.5,3.5S84.3,102.2,82.3,102.2z
			 M60.9,102.2H50.1c-1.9,0-3.5-1.6-3.5-3.5s1.6-3.5,3.5-3.5h10.7c1.9,0,3.5,1.6,3.5,3.5S62.8,102.2,60.9,102.2z M39.4,102.2H28.7
			c-1.9,0-3.5-1.6-3.5-3.5s1.6-3.5,3.5-3.5h10.7c1.9,0,3.5,1.6,3.5,3.5S41.3,102.2,39.4,102.2z"/>
	</g>
	<g>
		<path class="st0" d="M18,102.2h-6c-1.9,0-3.5-1.6-3.5-3.5v-6c0-1.9,1.6-3.5,3.5-3.5s3.5,1.6,3.5,3.5v2.5H18c1.9,0,3.5,1.6,3.5,3.5
			S19.9,102.2,18,102.2z"/>
	</g>
	<g>
		<path class="st0" d="M12,85.5c-1.9,0-3.5-1.6-3.5-3.5V71.2c0-1.9,1.6-3.5,3.5-3.5s3.5,1.6,3.5,3.5V82C15.5,83.9,13.9,85.5,12,85.5
			z M12,64c-1.9,0-3.5-1.6-3.5-3.5V49.8c0-1.9,1.6-3.5,3.5-3.5s3.5,1.6,3.5,3.5v10.7C15.5,62.4,13.9,64,12,64z M12,42.6
			c-1.9,0-3.5-1.6-3.5-3.5V28.3c0-1.9,1.6-3.5,3.5-3.5s3.5,1.6,3.5,3.5v10.7C15.5,41,13.9,42.6,12,42.6z"/>
	</g>
	<g>
		<path class="st0" d="M12,21.1c-1.9,0-3.5-1.6-3.5-3.5v-6c0-1.9,1.6-3.5,3.5-3.5h6c1.9,0,3.5,1.6,3.5,3.5s-1.6,3.5-3.5,3.5h-2.5
			v2.5C15.5,19.5,13.9,21.1,12,21.1z"/>
	</g>
	<g>
		<path class="st0" d="M82.3,15.1H71.6c-1.9,0-3.5-1.6-3.5-3.5s1.6-3.5,3.5-3.5h10.7c1.9,0,3.5,1.6,3.5,3.5S84.3,15.1,82.3,15.1z
			 M60.9,15.1H50.1c-1.9,0-3.5-1.6-3.5-3.5s1.6-3.5,3.5-3.5h10.7c1.9,0,3.5,1.6,3.5,3.5S62.8,15.1,60.9,15.1z M39.4,15.1H28.7
			c-1.9,0-3.5-1.6-3.5-3.5s1.6-3.5,3.5-3.5h10.7c1.9,0,3.5,1.6,3.5,3.5S41.3,15.1,39.4,15.1z"/>
	</g>
	<g>
		<path class="st0" d="M99.1,21.1c-1.9,0-3.5-1.6-3.5-3.5v-2.5h-2.5c-1.9,0-3.5-1.6-3.5-3.5s1.6-3.5,3.5-3.5h6
			c1.9,0,3.5,1.6,3.5,3.5v6C102.6,19.5,101,21.1,99.1,21.1z"/>
	</g>
	<g>
		<path class="st0" d="M99.1,85.5c-1.9,0-3.5-1.6-3.5-3.5V71.2c0-1.9,1.6-3.5,3.5-3.5s3.5,1.6,3.5,3.5V82
			C102.6,83.9,101,85.5,99.1,85.5z M99.1,64c-1.9,0-3.5-1.6-3.5-3.5V49.8c0-1.9,1.6-3.5,3.5-3.5s3.5,1.6,3.5,3.5v10.7
			C102.6,62.4,101,64,99.1,64z M99.1,42.6c-1.9,0-3.5-1.6-3.5-3.5V28.3c0-1.9,1.6-3.5,3.5-3.5s3.5,1.6,3.5,3.5v10.7
			C102.6,41,101,42.6,99.1,42.6z"/>
	</g>
</g>
</svg>
