<?xml version="1.0" encoding="utf-8"?>
<!-- Generator: Adobe Illustrator 23.0.1, SVG Export Plug-In . SVG Version: 6.00 Build 0)  -->
<svg version="1.1" id="Layer_1" xmlns="http://www.w3.org/2000/svg" xmlns:xlink="http://www.w3.org/1999/xlink" x="0px" y="0px"
	 viewBox="0 0 110 110" style="enable-background:new 0 0 110 110;" xml:space="preserve">
<style type="text/css">
	.st0{fill:#495057;}
</style>
<title>Asset 23</title>
<path class="st0" d="M96,24.9c1.1,1.1,2.1,2.7,2.9,4.3c0.8,1.8,1.1,3.5,1.1,5.3v67.2c0,1.4-0.6,2.9-1.8,4c-1.1,1.1-2.4,1.8-4,1.8
	H15.7c-1.4,0-2.9-0.6-4-1.8c-1.1-1.1-1.8-2.4-1.8-4V8.3c0-1.4,0.6-2.9,1.8-4c1.1-1.1,2.4-1.8,4-1.8H68c1.4,0,3.2,0.3,5.3,1.1
	c1.8,0.8,3.2,1.8,4.3,2.9L96,24.9z M69.9,10.6v21.9h21.9c-0.3-1.1-0.8-2.1-1.1-2.4L72.3,11.8C72,11.5,71.2,10.9,69.9,10.6z
	 M92.5,99.9V40.1H68.3c-1.4,0-2.9-0.6-4-1.8c-1.1-1.1-1.8-2.4-1.8-4V10.1H17.8v90h74.8V99.9z M85.1,73.7v18.7H25V81.2l11.2-11.2
	l7.5,7.5l22.5-22.3L85.1,73.7z M36.5,62.5c-3.2,0-5.9-1.1-8-3.2c-2.1-2.1-3.2-5-3.2-8c0-3.2,1.1-5.9,3.2-8s5-3.2,8-3.2
	c3.2,0,5.9,1.1,8,3.2c2.1,2.1,3.2,5,3.2,8c0,3.2-1.1,5.9-3.2,8C42.2,61.4,39.7,62.5,36.5,62.5z"/>
</svg>
