<?xml version="1.0" encoding="utf-8"?>
<!-- Generator: Adobe Illustrator 23.0.1, SVG Export Plug-In . SVG Version: 6.00 Build 0)  -->
<svg version="1.1" id="Layer_1" xmlns="http://www.w3.org/2000/svg" xmlns:xlink="http://www.w3.org/1999/xlink" x="0px" y="0px"
	 viewBox="0 0 110 110" style="enable-background:new 0 0 110 110;" xml:space="preserve">
<style type="text/css">
	.st0{fill:#F88012;}
</style>
<title>Asset 23</title>
<path class="st0" d="M84.4,33.4c0.8,0.8,1.5,1.9,2.1,3.1c0.6,1.3,0.8,2.5,0.8,3.8v48.2c0,1-0.4,2.1-1.3,2.9
	c-0.8,0.8-1.7,1.3-2.9,1.3H26.8c-1,0-2.1-0.4-2.9-1.3c-0.8-0.8-1.3-1.7-1.3-2.9v-67c0-1,0.4-2.1,1.3-2.9c0.8-0.8,1.7-1.3,2.9-1.3
	h37.5c1,0,2.3,0.2,3.8,0.8c1.3,0.6,2.3,1.3,3.1,2.1L84.4,33.4z M65.7,23.2v15.7h15.7c-0.2-0.8-0.6-1.5-0.8-1.7L67.4,24
	C67.2,23.8,66.6,23.4,65.7,23.2z M81.9,87.2V44.3H64.5c-1,0-2.1-0.4-2.9-1.3c-0.8-0.8-1.3-1.7-1.3-2.9V22.8h-32v64.5H81.9z
	 M76.6,68.4v13.4H33.5v-8l8-8l5.4,5.4L63,55.2L76.6,68.4z M41.7,60.4c-2.3,0-4.2-0.8-5.7-2.3c-1.5-1.5-2.3-3.6-2.3-5.7
	c0-2.3,0.8-4.2,2.3-5.7s3.6-2.3,5.7-2.3c2.3,0,4.2,0.8,5.7,2.3c1.5,1.5,2.3,3.6,2.3,5.7c0,2.3-0.8,4.2-2.3,5.7
	C45.8,59.6,44,60.4,41.7,60.4z"/>
</svg>
