<?xml version="1.0" encoding="utf-8"?>
<!-- Generator: Adobe Illustrator 23.0.1, SVG Export Plug-In . SVG Version: 6.00 Build 0)  -->
<svg version="1.1" id="Layer_1" xmlns="http://www.w3.org/2000/svg" xmlns:xlink="http://www.w3.org/1999/xlink" x="0px" y="0px"
	 viewBox="0 0 110 110" style="enable-background:new 0 0 110 110;" xml:space="preserve">
<style type="text/css">
	.st0{fill:#495057;}
</style>
<title>Asset 23</title>
<g>
	<path class="st0" d="M106.3,94.8H3.5c-1.9,0-3.5-1.6-3.5-3.5V19.1c0-1.9,1.6-3.5,3.5-3.5h102.9c1.9,0,3.5,1.6,3.5,3.5v72.2
		C109.8,93.2,108.2,94.8,106.3,94.8z M7,87.8h95.9V22.6H7V87.8z"/>
</g>
<g>
	<g>
		<path class="st0" d="M72,37.7H58.2c-2.2,0-4-1.8-4-4s1.8-4,4-4H72c2.2,0,4,1.8,4,4S74.2,37.7,72,37.7z"/>
	</g>
	<g>
		<path class="st0" d="M72,79.7H58.2c-2.2,0-4-1.8-4-4s1.8-4,4-4H72c2.2,0,4,1.8,4,4S74.2,79.7,72,79.7z"/>
	</g>
	<g>
		<path class="st0" d="M65.1,79.3c-2.2,0-4-1.8-4-4V33.9c0-2.2,1.8-4,4-4s4,1.8,4,4v41.4C69.1,77.5,67.3,79.3,65.1,79.3z"/>
	</g>
</g>
<g>
	<path class="st0" d="M46,73.5c-3.8,0-6.4-1.5-7.7-4.6c-3.3,3.1-7.1,4.6-11.6,4.6c-3.7,0-6.6-1-8.8-2.9c-2.2-1.9-3.3-4.5-3.3-7.7
		c0-4.9,2.1-8.1,6.4-9.5c1.8-0.6,3.9-1.1,6.3-1.5c3.3-0.6,5.6-1.2,6.8-1.9c1.2-0.7,1.8-1.8,1.8-3.3c0-1.1-0.5-2-1.4-2.7
		c-0.9-0.7-2-1.1-3.4-1.1c-1.5,0-2.3,0.5-2.3,1.5c0,0.3,0,0.7,0.1,1v0.3c0,1.3-0.5,2.4-1.6,3.3c-1.1,0.9-2.5,1.3-4.1,1.3
		c-1.9,0-3.4-0.6-4.6-1.7c-1.2-1.1-1.8-2.5-1.8-4.2c0-2.5,1.3-4.5,4-6c2.7-1.4,6.3-2.2,11-2.2c5,0,8.8,0.8,11.3,2.3
		c2.7,1.7,4,4.8,4,9.4v14.5c0,1.5,0.4,2.2,1.1,2.2c0.4,0,0.7,0,1-0.1c0.1,0,0.3-0.1,0.5-0.1c1.1,0,2,0.4,2.7,1.1
		c0.7,0.7,1.1,1.7,1.1,2.7c0,1.5-0.7,2.8-2.1,3.8C49.9,73,48.2,73.5,46,73.5z M35.9,58.6V57c-0.3,0.2-2.4,0.8-6.2,1.8
		c-2.6,0.7-3.9,1.7-3.9,3c0,2.1,1.3,3.2,3.8,3.2C33.8,65,35.9,62.9,35.9,58.6z"/>
</g>
</svg>
