<svg xmlns="http://www.w3.org/2000/svg" viewBox="0 0 110 110"><defs><style>.cls-1{fill:#ebe9d8;}.cls-2,.cls-6{fill:none;}.cls-2{stroke:#f8f9fa;stroke-miterlimit:10;}.cls-3{fill:#cdc8ad;}.cls-4{fill:#f1f1f1;}.cls-5{fill:#f88012;fill-rule:evenodd;}</style></defs><title>Asset 23</title><g id="Layer_2" data-name="Layer 2"><g id="Layer_1-2" data-name="Layer 1"><rect class="cls-1" x="20.98" y="4.24" width="67.11" height="91.34" rx="7.2" transform="translate(4.62 104.45) rotate(-90)"/><rect class="cls-2" x="26.01" y="9.62" width="57.06" height="80.77" rx="3.35" transform="translate(4.53 104.54) rotate(-90)"/><rect class="cls-3" x="40.62" y="36.33" width="27.84" height="3.63" rx="0.62"/><rect class="cls-3" x="27.63" y="48.37" width="53.82" height="3.63" rx="0.62"/><rect class="cls-3" x="27.63" y="60.41" width="53.82" height="3.63" rx="0.62"/><circle class="cls-4" cx="87.24" cy="70.78" r="12.08"/><path class="cls-5" d="M102.38,70.78A15.15,15.15,0,1,0,78.82,83.37v17.34L87.24,94l8.41,6.73V83.37A15.12,15.12,0,0,0,102.38,70.78ZM92.26,72.72l.8,6.29-5.82-2.7L81.41,79l.8-6.29-4.4-4.63,6.32-1.2,3.11-5.55,3.1,5.55,6.32,1.2Z"/><rect class="cls-6" width="110" height="110"/></g></g></svg>