<?xml version="1.0" encoding="utf-8"?>
<!-- Generator: Adobe Illustrator 23.0.1, SVG Export Plug-In . SVG Version: 6.00 Build 0)  -->
<svg version="1.1" id="Layer_1" xmlns="http://www.w3.org/2000/svg" xmlns:xlink="http://www.w3.org/1999/xlink" x="0px" y="0px"
	 viewBox="0 0 110 110" style="enable-background:new 0 0 110 110;" xml:space="preserve">
<style type="text/css">
	.st0{fill:#F88012;}
</style>
<title>Asset 23</title>
<g>
	<path class="st0" d="M88.9,91.6H20.4c-1.6,0-3-1.4-3-3c0-18.8,16.8-34.2,37.3-34.2s37.5,15.2,37.5,34
		C92.1,90.1,90.7,91.6,88.9,91.6z M23.9,85.3h61.8c-1.8-14-15-24.9-31-24.9S25.5,71.3,23.9,85.3z M54.6,60.4
		c-11.9,0-21.9-9.7-21.9-21.9s9.7-21.9,21.9-21.9c11.9,0,21.9,9.7,21.9,21.9S66.8,60.4,54.6,60.4z M54.6,23.1
		c-8.5,0-15.6,6.9-15.6,15.6s6.9,15.6,15.6,15.6s15.6-6.9,15.6-15.6S63.4,23.1,54.6,23.1z"/>
</g>
</svg>
