<?xml version="1.0" encoding="utf-8"?>
<!-- Generator: Adobe Illustrator 23.0.1, SVG Export Plug-In . SVG Version: 6.00 Build 0)  -->
<svg version="1.1" id="Layer_1" xmlns="http://www.w3.org/2000/svg" xmlns:xlink="http://www.w3.org/1999/xlink" x="0px" y="0px"
	 viewBox="0 0 110 110" style="enable-background:new 0 0 110 110;" xml:space="preserve">
<style type="text/css">
	.st0{fill:#495057;}
</style>
<title>Asset 23</title>
<g>
	<path class="st0" d="M97.4,101H11.8c-2,0-3.7-1.8-3.7-3.7c0-23.5,21-42.7,46.6-42.7s46.9,19,46.9,42.5
		C101.4,99.1,99.6,101,97.4,101z M16.2,93.1h77.2C91.2,75.6,74.7,62,54.7,62S18.2,75.6,16.2,93.1z M54.5,62
		c-14.9,0-27.4-12.2-27.4-27.4S39.3,7.2,54.5,7.2c14.9,0,27.4,12.2,27.4,27.4S69.8,62,54.5,62z M54.5,15.4C43.9,15.4,35,24,35,34.9
		s8.6,19.5,19.5,19.5S74,45.7,74,34.9S65.6,15.4,54.5,15.4z"/>
</g>
</svg>
